HIERARCHY
ROOT Hips
{
  OFFSET 279.157 85.6768 304.565
  CHANNELS 6 Xposition Yposition Zposition Zrotation Xrotation Yrotation
  JOINT LeftUpLeg
  {
    OFFSET 8.64259 1.95398 -2.38835
    CHANNELS 3 Zrotation Xrotation Yrotation
    JOINT LeftLeg
    {
      OFFSET 43.7702 0 0
      CHANNELS 3 Zrotation Xrotation Yrotation
      JOINT LeftFoot
      {
        OFFSET 40.6238 0 0
        CHANNELS 3 Zrotation Xrotation Yrotation
        JOINT LeftToeBase
        {
          OFFSET 12.7242 0 0
          CHANNELS 3 Zrotation Xrotation Yrotation
          End Site
          {
            OFFSET 0 0 0
          }
        }
      }
    }
  }
  JOINT RightUpLeg
  {
    OFFSET -8.2249 1.95398 -2.59336
    CHANNELS 3 Zrotation Xrotation Yrotation
    JOINT RightLeg
    {
      OFFSET 43.5653 0 0
      CHANNELS 3 Zrotation Xrotation Yrotation
      JOINT RightFoot
      {
        OFFSET 40.6238 0 0
        CHANNELS 3 Zrotation Xrotation Yrotation
        JOINT RightToeBase
        {
          OFFSET 12.7242 0 0
          CHANNELS 3 Zrotation Xrotation Yrotation
          End Site
          {
            OFFSET 0 0 0
          }
        }
      }
    }
  }
  JOINT Spine
  {
    OFFSET 0.165834 0.87714 6.61349
    CHANNELS 3 Zrotation Xrotation Yrotation
    JOINT Spine1
    {
      OFFSET 7.38963 1.71661e-005 0
      CHANNELS 3 Zrotation Xrotation Yrotation
      JOINT Spine2
      {
        OFFSET 11.9445 1.14441e-005 0
        CHANNELS 3 Zrotation Xrotation Yrotation
        JOINT Spine3
        {
          OFFSET 14.7254 4.19617e-005 0
          CHANNELS 3 Zrotation Xrotation Yrotation
          JOINT Spine4
          {
            OFFSET 10.9679 0 0
            CHANNELS 3 Zrotation Xrotation Yrotation
            JOINT RightShoulder
            {
              OFFSET 2.46616 -1.6653 3.69651
              CHANNELS 3 Zrotation Xrotation Yrotation
              JOINT RightArm
              {
                OFFSET 13.0012 0 0
                CHANNELS 3 Zrotation Xrotation Yrotation
                JOINT RightForeArm
                {
                  OFFSET 28.7848 1.52588e-005 0
                  CHANNELS 3 Zrotation Xrotation Yrotation
                  JOINT RightHand
                  {
                    OFFSET 26.5688 1.52588e-005 0
                    CHANNELS 3 Zrotation Xrotation Yrotation
                    End Site
                    {
                      OFFSET 0 0 0
                    }
                  }
                }
              }
            }
            JOINT LeftShoulder
            {
              OFFSET 2.38034 -1.29275 -3.7523
              CHANNELS 3 Zrotation Xrotation Yrotation
              JOINT LeftArm
              {
                OFFSET 16.3182 6.10351e-005 0
                CHANNELS 3 Zrotation Xrotation Yrotation
                JOINT LeftForeArm
                {
                  OFFSET 27.0901 0 0
                  CHANNELS 3 Zrotation Xrotation Yrotation
                  JOINT LeftHand
                  {
                    OFFSET 24.5451 1.52588e-005 0
                    CHANNELS 3 Zrotation Xrotation Yrotation
                    End Site
                    {
                      OFFSET 0 0 0
                    }
                  }
                }
              }
            }
            JOINT Neck
            {
              OFFSET 5.0226 -0.0266342 0
              CHANNELS 3 Zrotation Xrotation Yrotation
              JOINT Head
              {
                OFFSET 6.69364 2.86102e-005 0
                CHANNELS 3 Zrotation Xrotation Yrotation
                End Site
                {
                  OFFSET 0 0 0
                }
              }
            }
          }
        }
      }
    }
  }
}
MOTION
Frames:	15
Frame Time:	0.0416667
1.06132 111.46 -2.42838 87.4077 49.128 91.5216 -172.6 0.737963 89.8453 -65.2029 23.7753 4.29117 46.1479 -9.08031 -3.63021 10.06 -11.3297 2.08204 168.556 5.40023 92.9271 -89.8775 -13.2775 -1.56204 54.8996 2.57884 0.945236 18.7374 2.01436 6.53431 0.195969 7.20835 -90.522 12.4566 0.140945 -1.05838 0.785227 0.0942228 -1.06356 -21.7469 0.452489 -0.967109 -1.7343 0.452497 -0.96711 104.53 9.97876 -68.6677 -1.68037 35.7805 -51.4905 -1.41526 -5.13025 -6.71657 -25.3673 1.12114 -11.7737 -79.827 -7.44905 90.9835 24.3489 -35.1042 -51.9604 11.8379 -10.2965 -3.72635 5.9189 -0.274227 -6.96507 -31.9832 -0.233908 -6.48903 2.73967 -1.00741 3.5303 
7.53947 114.165 -8.16047 85.8347 48.6602 92.2043 -169.345 21.2601 93.3505 -86.1346 12.1185 2.40648 55.8143 -2.47172 0.117009 8.33334 -12.7893 2.87716 169.9 31.63 87.5998 -108.698 -14.4365 -2.94001 59.0309 -1.01304 -1.38197 20.5541 1.99266 4.10735 -0.0385037 8.41871 -90.6458 10.033 -0.370483 -1.25557 -1.63852 -0.425367 -1.23805 -24.1688 0.0239563 -1.30885 -4.15616 0.0239709 -1.30885 103.467 0.502979 -77.3168 -10.7545 25.7172 -18.3442 -0.574325 -5.11918 -9.15547 -25.9883 0.798399 -10.0245 -79.5895 -9.29279 91.7494 32.3113 -20.9274 -25.6247 7.77991 -5.64983 -4.43796 4.23641 -0.285963 -7.90652 -33.2871 0.258769 -5.37181 5.54986 -0.261764 4.64788 
12.9429 113.97 -11.3955 82.8137 49.6584 93.3989 -163.641 43.2893 82.0245 -91.5594 11.266 1.61234 64.5715 4.22053 2.15691 7.468 -12.5848 1.36102 170.496 51.2593 91.3681 -98.727 -12.0986 -2.55797 67.0078 -5.98612 -4.44112 21.6827 1.62979 4.18369 -0.198015 9.81706 -90.5888 7.23502 -0.649088 -1.13115 -4.43622 -0.698269 -1.1015 -26.9678 -0.279172 -1.27393 -6.95512 -0.279168 -1.27392 99.4574 -6.50215 -91.1397 0.241599 11.466 4.03059 1.57133 -5.74388 -5.76851 -25.0394 1.4231 -13.4549 -81.4131 -11.9834 87.201 30.0332 1.50542 -9.57595 0.010013 -2.3121 -2.2787 2.62564 -0.238072 -7.74964 -26.9179 -0.0370887 -6.5882 6.71955 -0.275086 5.26609 
20.1764 109.449 -16.3614 79.1085 50.5548 96.7177 -160.432 56.1612 75.3761 -76.2179 13.0072 -1.84868 72.211 8.49938 0.428097 11.0925 -12.7152 6.4669 171.716 55.9287 91.3152 -65.9281 -9.95048 0.236067 70.3365 -6.83493 -3.0563 19.7438 2.6142 2.3905 -0.0301402 11.0327 -90.8367 4.80246 -0.403266 -1.63517 -6.86943 -0.47484 -1.61585 -29.3963 0.106725 -1.68078 -9.38363 0.106733 -1.68077 96.4242 -14.9462 -97.5861 13.4257 2.7439 8.26394 4.44425 -10.7506 -5.52935 -25.6563 1.10528 -13.0644 -84.7513 -20.0356 80.8655 18.8068 8.65217 -2.56873 -2.03597 -2.57355 -0.524422 6.15629 -0.372678 -8.17127 -13.2319 -1.38886 -7.16317 3.92219 -0.972754 6.17317 
31.291 100.519 -25.4409 75.269 47.6535 100.368 -164.42 61.6217 79.7823 -52.56 13.3066 -6.46262 73.9266 8.05907 -2.26781 17.0867 -10.7021 11.0659 175.077 51.3279 91.2594 -34.0168 -14.2649 1.96734 65.3881 -3.7375 -0.84571 22.799 1.83855 1.28528 0.196173 11.6686 -90.9226 3.5328 0.0234609 -1.80494 -8.1394 -0.0560026 -1.80423 -30.6652 0.564751 -1.7145 -10.6525 0.564747 -1.7145 92.4102 -20.1442 -105.791 24.835 0.370957 8.42174 5.40491 -7.89362 -8.43643 -26.6312 1.45978 -13.6217 -86.1585 -28.4612 80.3945 1.60434 6.63093 -0.219425 -0.209568 -2.91674 -0.526729 5.51877 -0.324493 -7.63082 -3.13449 -1.09501 -2.56805 0.612806 -0.700237 2.95318 
42.4478 86.5172 -34.7491 82.0608 45.168 95.5168 -172.871 59.4716 88.2687 -42.0156 14.9766 -4.60126 71.7971 6.91176 -3.38633 19.025 -7.8874 7.47416 179.22 57.113 93.0673 -55.4616 -11.8897 -1.10122 64.8017 -2.92669 -1.4595 19.9253 1.7143 6.24956 0.303041 11.6263 -90.552 3.6234 0.384724 -1.08066 -8.04793 0.336801 -1.09656 -30.581 0.691727 -0.915104 -10.5684 0.69173 -0.915108 86.9201 -31.4519 -112.117 26.3564 -0.0912231 4.48459 5.25726 -9.39293 -6.2517 -22.2517 0.540898 -10.5748 -88.2931 -40.643 79.2555 -4.13693 13.4133 -3.35875 -4.25393 -11.3669 0.0172061 7.57932 0.216027 -0.945641 -6.07789 0.236397 -0.899862 0.806142 0.385969 2.40703 
48.9722 76.2392 -41.742 90.8455 40.8812 92.4453 -177.741 68.3913 93.0692 -66.0665 18.5149 0.4832 60.0049 -0.299256 1.22269 8.51172 -17.7028 12.7436 169.323 64.886 104.904 -86.4078 -17.2122 -1.63909 63.7028 -3.72797 -4.15862 29.6545 -1.16746 7.31263 0.52243 12.0274 -90.4348 2.8212 0.872613 -0.839239 -8.84976 0.834862 -0.876836 -31.3862 1.0845 -0.538172 -11.3736 1.0845 -0.538179 82.7135 -32.2556 -119.599 19.0138 -2.18398 -14.1682 7.19849 -7.29109 -2.04475 -26.1324 0.238868 -8.03474 -92.4149 -47.6606 74.5223 -4.57556 7.33842 -20.6341 -1.80796 0.0948556 -0.00272987 1.41945 -0.138887 -5.83128 0.528845 1.71194 0.147862 1.51922 1.7488 2.73253 
55.6997 71.0058 -46.8551 96.5114 44.2031 84.2509 -164.943 69.5294 78.4197 -84.8341 19.2464 1.54124 68.4248 6.58894 3.58039 12.8846 -12.9801 9.67708 169.247 65.0047 100.986 -103.812 -16.5662 -3.14776 67.3297 -6.71214 -7.07285 38.7858 -3.64378 7.88179 0.373696 12.5739 -90.0221 1.72542 0.737838 -0.026799 -9.94535 0.735944 -0.0592536 -32.4819 0.711778 0.196194 -12.4693 0.711765 0.196207 86.2159 -25.362 -116.602 10.6267 5.79177 -40.8625 2.99377 -12.5485 -7.74569 -26.7998 0.300363 -9.36151 -94.83 -43.5845 69.5351 1.87376 0.348491 -55.519 -0.0687059 0.17486 -0.762538 6.49985 -0.489052 -9.60858 5.94506 0.728418 -0.282438 1.26864 0.764677 0.40674 
61.695 71.0491 -50.8899 94.1578 46.5016 84.3242 -155.883 69.1733 71.4322 -91.7148 21.2896 1.46787 72.0419 9.37587 3.85795 13.0197 -12.8908 9.66167 172.787 63.2287 98.7564 -107.322 -12.3267 -3.43492 67.0298 -6.69785 -5.79641 49.6912 -6.51762 7.88132 0.474197 12.2426 -89.9168 2.38714 0.979317 0.181074 -9.28344 0.986342 0.137784 -31.8209 0.879609 0.467052 -11.8083 0.879619 0.467045 91.6447 -13.8301 -110.727 5.29904 19.9549 -61.1257 1.86341 -8.56921 -9.30938 -28.5172 0.884405 -10.7086 -92.5423 -32.6276 69.5342 -0.179633 -10.7807 -80.9789 5.06183 1.98728 -6.00352 9.33586 -0.77848 -11.0497 8.41527 -1.22479 1.64987 3.95755 -1.55819 -0.448445 
68.5233 75.4406 -55.3275 90.889 50.4608 84.5266 -158.02 63.5362 73.4234 -89.7565 24.8272 0.763762 73.242 10.7444 5.09633 12.4781 -12.8831 8.82249 174.848 55.3731 95.9522 -102.555 -7.36527 -3.24134 68.3899 -7.76773 -5.10333 55.4073 -8.16495 6.62369 0.442467 11.6696 -89.7315 3.5323 0.991415 0.525665 -8.13835 1.01361 0.481495 -30.6748 0.787594 0.799322 -10.6621 0.787616 0.799324 97.2436 -3.01222 -99.8646 7.91021 30.3825 -72.6773 -0.101506 -2.82085 -9.21881 -30.1909 1.87938 -12.9612 -87.9514 -20.549 73.9949 0.0989663 -18.4621 -95.0149 7.37175 -4.73937 -12.692 9.67234 -0.890388 -11.8693 5.5623 -3.01637 -1.86747 6.54171 -2.62393 -0.223087 
75.5769 82.2645 -60.8119 88.3942 52.6605 84.7454 -163.176 53.7689 79.2052 -81.5927 27.4654 -0.796525 73.3302 10.6533 4.42011 14.1652 -13.2497 12.2441 176.318 47.6945 92.8688 -93.6445 -7.08353 -2.99837 59.9121 -1.70978 -2.7654 53.1193 -6.94156 12.4972 0.345609 10.9664 -89.6652 4.93815 0.828335 0.643732 -6.73267 0.855863 0.606648 -29.2678 0.596575 0.862911 -9.25514 0.596579 0.862923 99.3272 4.49493 -95.6321 9.91044 34.383 -72.7776 -1.18853 -7.07709 -10.8967 -29.8574 1.63809 -13.0766 -84.9891 -14.2706 78.615 -8.09464 -22.6151 -99.8845 13.9202 2.49763 -24.7209 6.3587 -1.05445 -16.9461 -1.35528 -3.1378 -2.10592 8.97525 -2.78824 0.285766 
82.4766 88.9722 -66.4819 86.409 52.1701 87.0572 -168.425 42.4066 85.9137 -69.9034 26.1861 -1.52819 73.0478 9.77506 2.42236 21.7424 -8.38394 13.8181 178.632 44.0135 92.0738 -85.9914 -14.4081 -3.33635 47.2076 6.48936 2.17429 30.2979 -1.62241 9.71917 0.432815 10.3485 -89.6487 6.17357 1.01301 0.658097 -5.49712 1.04097 0.612871 -28.033 0.768377 0.932115 -8.02032 0.768383 0.932116 99.5011 4.10442 -94.8784 6.42652 34.3947 -69.4833 -0.498213 -11.7011 -12.8847 -28.1176 1.44059 -13.9207 -86.5826 -19.2358 76.6224 -10.2333 -24.7403 -98.5747 19.4742 8.67969 -38.6019 7.31146 -1.41843 -19.9833 -4.78277 -2.85374 -4.00162 9.44166 -2.33034 0.945978 
88.7739 94.3457 -72.1502 85.8289 51.0167 88.0222 -171.454 30.935 88.8862 -58.4086 25.2263 -1.46218 72.0036 9.24459 3.13362 22.7611 -7.6166 13.7612 -179.447 41.577 90.0234 -75.8791 -24.7025 -4.3782 51.0769 4.98683 3.76352 31.1493 -1.03946 2.12233 0.311707 9.93182 -89.5658 7.00645 0.808929 0.820981 -4.66448 0.844275 0.784579 -27.1986 0.524813 1.02613 -7.1859 0.524811 1.02613 97.0372 -5.28181 -99.3133 -4.16615 33.5269 -59.9811 -1.41301 -16.027 -15.9621 -27.8856 1.62945 -16.0204 -87.3145 -21.7211 75.859 -11.4935 -24.1673 -97.0771 22.8062 10.3825 -46.0504 8.23931 -1.75759 -22.0909 -5.25476 -1.9897 -5.65487 8.05225 -1.23108 2.27429 
94.6622 98.3438 -77.2889 86.9751 49.3347 88.2146 -173.525 20.0213 90.6943 -48.1577 23.4873 -0.0160573 68.2732 6.905 4.17101 26.017 -4.98922 12.6991 179.213 39.2207 89.0183 -57.0692 -19.7719 -3.16624 62.8562 -1.34191 -0.0622473 30.3618 -0.898865 3.12715 0.265279 9.71442 -89.6433 7.4425 0.684127 0.670411 -4.22842 0.712986 0.639641 -26.763 0.451019 0.845022 -6.75032 0.451026 0.84501 97.2938 -5.53422 -98.5551 0.186916 28.5704 -59.6884 -0.44165 -15.8617 -18.5007 -29.7619 1.5715 -14.8985 -88.1694 -23.8566 74.8097 -11.8095 -22.0197 -95.3685 24.3021 11.1346 -49.8467 7.70738 -1.73694 -22.8573 -4.59719 -0.769269 -4.77388 7.1435 -0.089124 2.45012 
101.009 100.175 -82.5469 87.6223 48.4081 88.9401 -174.59 10.1627 92.0698 -39.7012 22.1407 1.78676 66.7538 5.66947 3.28804 25.7599 -7.07794 18.8751 177.436 36.0963 88.1008 -33.8445 -12.5664 -1.09228 63.7553 -1.86186 0.175725 28.8773 -0.39817 2.85778 0.0176097 9.49973 -89.7796 7.87395 0.131225 0.428025 -3.79707 0.149928 0.421825 -26.3316 -0.00348619 0.447664 -6.319 -0.00348836 0.447675 95.6703 -10.6401 -101.323 -1.63616 23.9393 -56.3303 -3.87267 -17.3884 -16.5215 -25.7246 1.82436 -18.5224 -88.1917 -24.6733 75.0493 -10.4054 -19.7303 -93.318 21.8669 9.46108 -48.9335 8.00592 -1.79814 -23.0084 -3.94644 0.705391 -4.42479 5.81283 1.31727 2.24725 
